<?xml version="1.0" standalone="no"?>
<!DOCTYPE svg PUBLIC "-//W3C//DTD SVG 20010904//EN"
 "http://www.w3.org/TR/2001/REC-SVG-20010904/DTD/svg10.dtd">
<svg version="1.0" xmlns="http://www.w3.org/2000/svg"
 width="491.000000pt" height="239.000000pt" viewBox="0 0 491.000000 239.000000"
 preserveAspectRatio="xMidYMid meet">

<g transform="translate(0.000000,239.000000) scale(0.100000,-0.100000)"
fill="#000000" stroke="none">
<path d="M254 2369 c-86 -25 -170 -113 -216 -227 -23 -57 -23 -58 -20 -487 4
-798 19 -1352 37 -1428 21 -86 67 -154 125 -187 38 -21 58 -25 130 -25 l85 0
767 292 c422 160 789 304 815 320 96 56 160 139 190 248 16 59 36 489 31 675
-3 110 -6 131 -28 174 -29 58 -58 82 -131 106 -51 18 -55 21 -69 67 -20 65
-89 134 -162 161 -30 11 -361 88 -734 171 -679 151 -745 162 -820 140z m810
-193 c426 -95 711 -163 737 -176 53 -27 86 -56 105 -92 22 -43 18 -58 -13 -53
-76 14 -1148 126 -1210 127 -125 2 -221 -63 -260 -177 -16 -45 -18 -102 -18
-620 0 -525 1 -575 18 -630 35 -112 123 -165 242 -145 55 9 1052 333 1100 357
92 47 162 133 196 242 17 57 20 105 26 423 6 357 6 358 27 352 75 -22 112 -67
126 -149 14 -84 -6 -659 -26 -740 -29 -116 -94 -189 -220 -247 -117 -55 -1510
-575 -1554 -582 -134 -18 -217 61 -239 229 -15 105 -41 1685 -30 1756 24 152
143 276 267 278 18 1 344 -68 726 -153z m436 -465 c0 -4 -20 -14 -45 -21 -60
-17 -150 -71 -202 -122 l-42 -41 25 -37 c26 -39 54 -127 54 -171 0 -22 6 -27
49 -38 27 -7 70 -25 94 -41 l46 -29 38 42 c56 61 85 112 110 197 16 55 22 67
22 43 2 -74 -62 -215 -124 -273 l-24 -23 38 -46 c49 -59 84 -123 106 -189 24
-74 13 -87 -13 -15 -25 67 -86 166 -126 203 -23 21 -30 23 -47 12 -62 -39
-106 -55 -165 -60 -51 -4 -67 -9 -75 -24 -9 -16 -6 -26 18 -50 58 -62 131
-102 233 -129 61 -16 32 -24 -33 -9 -75 18 -148 54 -200 101 l-46 40 -63 -48
c-66 -50 -158 -96 -218 -108 -47 -10 -28 7 35 30 84 31 215 123 215 152 0 20
-30 63 -44 63 -7 0 -34 14 -60 31 l-49 30 -39 -38 c-53 -52 -88 -113 -115
-203 -16 -54 -22 -66 -22 -44 -2 75 49 192 111 260 l40 44 -42 47 c-49 55
-106 169 -115 228 -5 36 -4 37 6 15 60 -133 93 -190 131 -227 l43 -42 43 25
c38 22 42 29 42 63 0 46 31 141 60 180 11 16 20 34 20 39 0 18 -91 91 -152
121 -32 17 -79 33 -104 37 -24 3 -44 10 -44 15 0 10 41 4 115 -16 56 -16 134
-62 182 -108 27 -25 33 -27 38 -15 15 38 170 127 255 148 19 4 36 8 38 9 1 1
2 -3 2 -8z"/>
<path d="M1176 1477 c-33 -50 -64 -184 -43 -188 4 0 33 2 65 6 l58 6 -6 52
c-6 48 -42 147 -54 147 -3 0 -12 -10 -20 -23z"/>
<path d="M1134 1245 c-7 -17 2 -73 14 -91 4 -6 21 -14 38 -18 26 -6 32 -3 42
19 7 14 15 44 18 65 l7 40 -57 0 c-41 0 -58 -4 -62 -15z"/>
<path d="M1276 1199 c-10 -33 -16 -63 -13 -65 8 -9 108 16 149 37 39 20 41 22
23 35 -19 14 -118 54 -134 54 -5 0 -16 -27 -25 -61z"/>
<path d="M1058 1219 c-26 -14 -22 -26 13 -44 37 -20 41 -17 31 20 -9 33 -20
39 -44 24z"/>
<path d="M2804 1651 c-23 -10 -44 -26 -47 -36 -4 -9 -7 -146 -8 -303 0 -195
-4 -298 -12 -322 -30 -86 -141 -105 -204 -36 -30 32 -33 42 -33 96 l0 60 -27
-6 c-44 -11 -83 -43 -83 -68 0 -74 52 -162 116 -194 120 -62 274 -16 322 96
22 50 22 61 20 391 l-3 340 -41 -18z"/>
<path d="M3093 1440 c-54 -13 -107 -45 -131 -81 l-23 -34 30 -27 c33 -30 71
-37 71 -14 0 8 14 26 32 41 29 25 38 27 104 23 85 -4 114 -23 114 -73 0 -42
-18 -54 -150 -94 -174 -54 -224 -94 -224 -182 0 -104 73 -169 188 -169 67 0
122 21 174 64 31 27 32 27 32 6 0 -26 42 -70 68 -70 22 0 47 25 57 58 5 18 2
27 -14 38 -20 14 -21 24 -21 195 0 129 -4 189 -14 212 -36 86 -172 136 -293
107z m169 -439 c-62 -76 -170 -104 -217 -56 -43 42 -25 110 34 130 9 3 59 20
111 38 l95 32 3 -54 c3 -47 -1 -59 -26 -90z"/>
<path d="M3668 1436 c-26 -7 -63 -25 -82 -40 -64 -48 -68 -84 -15 -111 35 -19
59 -19 59 -1 0 8 14 26 31 40 25 22 41 26 90 26 90 0 129 -26 129 -86 0 -29
-45 -54 -145 -81 -91 -24 -185 -72 -210 -106 -28 -40 -27 -121 4 -170 59 -95
218 -105 329 -21 18 14 34 24 36 23 1 -2 7 -16 14 -32 13 -30 52 -53 76 -44 9
4 24 22 33 42 16 34 16 36 -5 51 -21 15 -22 21 -22 187 0 95 -5 189 -10 209
-27 96 -175 151 -312 114z m182 -436 c-81 -102 -240 -105 -240 -4 0 56 14 65
195 126 l70 23 3 -53 c3 -46 -1 -58 -28 -92z"/>
<path d="M4280 1419 c-24 -11 -53 -27 -62 -36 -17 -15 -18 -14 -18 17 0 31 -1
32 -32 26 -18 -3 -42 -16 -55 -28 -23 -21 -23 -23 -23 -295 0 -163 4 -273 9
-273 20 0 61 20 81 40 19 19 20 32 20 193 0 168 1 173 25 210 52 76 144 96
196 41 24 -25 24 -28 27 -255 l3 -230 22 6 c12 4 33 15 47 24 25 18 25 20 30
202 4 158 8 188 24 212 50 74 142 95 193 44 l28 -27 3 -231 3 -230 22 6 c12 4
33 15 47 24 l25 18 3 199 c2 109 0 214 -3 232 -7 40 -59 101 -102 118 -75 32
-179 11 -240 -48 l-31 -30 -18 27 c-40 62 -141 82 -224 44z"/>
</g>
</svg>
